<?xml version="1.0" standalone="no"?>
<!DOCTYPE svg PUBLIC "-//W3C//DTD SVG 20010904//EN"
 "http://www.w3.org/TR/2001/REC-SVG-20010904/DTD/svg10.dtd">
<svg version="1.0" xmlns="http://www.w3.org/2000/svg"
 width="700.000000pt" height="700.000000pt" viewBox="0 0 700.000000 700.000000"
 preserveAspectRatio="xMidYMid meet">
<metadata>
Created by potrace 1.11, written by Peter Selinger 2001-2013
</metadata>
<g transform="translate(0.000000,700.000000) scale(0.100000,-0.100000)"
fill="#000000" stroke="none">
<path d="M492 6985 c-180 -39 -345 -171 -428 -342 -69 -143 -64 99 -62 -3175
l3 -2963 23 -65 c78 -217 259 -381 470 -425 101 -22 5903 -22 6004 0 214 45
398 213 470 430 l23 70 0 2990 0 2990 -27 73 c-37 101 -82 173 -154 246 -73
72 -145 117 -246 154 l-73 27 -2970 2 c-2480 1 -2980 -1 -3033 -12z m3818
-3485 l0 -2660 -510 0 -510 0 -2 1910 -3 1909 -85 -75 c-109 -96 -290 -230
-427 -317 -195 -123 -582 -304 -770 -362 l-23 -6 0 459 0 459 98 38 c129 51
231 102 382 193 381 229 658 475 840 746 54 80 147 259 171 329 l13 37 413 0
413 0 0 -2660z"/>
</g>
</svg>
